<svg width="200" height="120" viewBox="0 0 200 120" fill="none" xmlns="http://www.w3.org/2000/svg">
  <!-- Background Card -->
  <rect x="8" y="20" width="184" height="88" rx="12" fill="white" stroke="#E5E7EB" stroke-width="1"/>
  
  <!-- Main Content Card -->
  <rect x="16" y="12" width="168" height="72" rx="8" fill="white" stroke="#D1D5DB" stroke-width="0.5"/>
  
  <!-- Avatar/Icon Container -->
  <rect x="24" y="20" width="32" height="32" rx="8" fill="#F3F4F6"/>
  
  <!-- Avatar Icon -->
  <rect x="30" y="26" width="20" height="20" rx="4" fill="#9CA3AF"/>
  <rect x="34" y="30" width="12" height="12" rx="2" fill="white"/>
  
  <!-- Content Lines -->
  <!-- Primary line (active/important) -->
  <rect x="64" y="24" width="80" height="6" rx="3" fill="#10B981"/>
  
  <!-- Secondary line (progress/info) -->
  <rect x="64" y="34" width="64" height="4" rx="2" fill="#D1FAE5"/>
  
  <!-- Tertiary line (additional info) -->
  <rect x="64" y="42" width="96" height="4" rx="2" fill="#F3F4F6"/>
  
  <!-- Status indicator -->
  <circle cx="172" cy="27" r="4" fill="#10B981"/>
  <circle cx="172" cy="27" r="2" fill="white"/>
  
  <!-- Subtle decorative elements -->
  <rect x="152" y="36" width="24" height="2" rx="1" fill="#E5E7EB"/>
  <rect x="152" y="40" width="16" height="2" rx="1" fill="#F3F4F6"/>
  
  <!-- Bottom section divider -->
  <line x1="24" y1="56" x2="176" y2="56" stroke="#F3F4F6" stroke-width="1"/>
  
  <!-- Footer elements -->
  <rect x="24" y="64" width="48" height="3" rx="1.5" fill="#E5E7EB"/>
  <rect x="80" y="64" width="32" height="3" rx="1.5" fill="#F3F4F6"/>
  
  <!-- Action indicator -->
  <rect x="152" y="62" width="24" height="8" rx="4" fill="#EFF6FF" stroke="#DBEAFE" stroke-width="0.5"/>
  <circle cx="158" cy="66" r="1.5" fill="#3B82F6"/>
  <rect x="162" y="64" width="10" height="2" rx="1" fill="#93C5FD"/>
</svg>